<mxfile host="www.draw.io" modified="2020-03-02T10:10:01.563Z" agent="Mozilla/5.0 (Macintosh; Intel Mac OS X 10.14; rv:73.0) Gecko/20100101 Firefox/73.0" etag="RkV3YeAMCxSR5V6jGZBy" version="12.7.9" type="github">
  <diagram id="vbmABFijaEN7yRa1TWVK" name="Page-1">
    <mxGraphModel dx="1143" dy="628" grid="1" gridSize="10" guides="1" tooltips="1" connect="1" arrows="1" fold="1" page="1" pageScale="1" pageWidth="850" pageHeight="1100" math="0" shadow="0">
      <root>
        <mxCell id="0" />
        <mxCell id="1" parent="0" />
        <mxCell id="fUN00b8Xxg0_f-7FElX_-54" style="edgeStyle=orthogonalEdgeStyle;rounded=0;orthogonalLoop=1;jettySize=auto;html=1;exitX=0.5;exitY=0;exitDx=0;exitDy=0;" parent="1" source="fUN00b8Xxg0_f-7FElX_-53" target="fUN00b8Xxg0_f-7FElX_-3" edge="1">
          <mxGeometry relative="1" as="geometry" />
        </mxCell>
        <mxCell id="fUN00b8Xxg0_f-7FElX_-55" value="Tagged &amp;amp; Pushed" style="text;html=1;align=center;verticalAlign=middle;resizable=0;points=[];labelBackgroundColor=#ffffff;" parent="fUN00b8Xxg0_f-7FElX_-54" vertex="1" connectable="0">
          <mxGeometry x="-0.2766" y="-2" relative="1" as="geometry">
            <mxPoint as="offset" />
          </mxGeometry>
        </mxCell>
        <mxCell id="fUN00b8Xxg0_f-7FElX_-53" value="Application stack" style="fillColor=none;strokeColor=#5A6C86;dashed=1;verticalAlign=top;fontStyle=0;fontColor=#5A6C86;" parent="1" vertex="1">
          <mxGeometry x="540" y="670" width="300" height="100" as="geometry" />
        </mxCell>
        <mxCell id="fUN00b8Xxg0_f-7FElX_-5" value="VPC" style="points=[[0,0],[0.25,0],[0.5,0],[0.75,0],[1,0],[1,0.25],[1,0.5],[1,0.75],[1,1],[0.75,1],[0.5,1],[0.25,1],[0,1],[0,0.75],[0,0.5],[0,0.25]];outlineConnect=0;gradientColor=none;html=1;whiteSpace=wrap;fontSize=12;fontStyle=0;shape=mxgraph.aws4.group;grIcon=mxgraph.aws4.group_vpc;strokeColor=#248814;fillColor=none;verticalAlign=top;align=left;spacingLeft=30;fontColor=#AAB7B8;dashed=0;" parent="1" vertex="1">
          <mxGeometry x="40" y="40" width="760" height="560" as="geometry" />
        </mxCell>
        <mxCell id="fUN00b8Xxg0_f-7FElX_-4" value="Region" style="points=[[0,0],[0.25,0],[0.5,0],[0.75,0],[1,0],[1,0.25],[1,0.5],[1,0.75],[1,1],[0.75,1],[0.5,1],[0.25,1],[0,1],[0,0.75],[0,0.5],[0,0.25]];outlineConnect=0;gradientColor=none;html=1;whiteSpace=wrap;fontSize=12;fontStyle=0;shape=mxgraph.aws4.group;grIcon=mxgraph.aws4.group_region;strokeColor=#147EBA;fillColor=none;verticalAlign=top;align=left;spacingLeft=30;fontColor=#147EBA;dashed=0;" parent="1" vertex="1">
          <mxGeometry x="20" y="20" width="800" height="600" as="geometry" />
        </mxCell>
        <mxCell id="fUN00b8Xxg0_f-7FElX_-32" value="ECS CLUSTER" style="fillColor=none;strokeColor=#5A6C86;dashed=1;verticalAlign=top;fontStyle=0;fontColor=#5A6C86;" parent="1" vertex="1">
          <mxGeometry x="190" y="370" width="380" height="220" as="geometry" />
        </mxCell>
        <mxCell id="fUN00b8Xxg0_f-7FElX_-25" value="TASK DEFINATION" style="fillColor=#EFF0F3;strokeColor=none;dashed=0;verticalAlign=top;fontStyle=0;fontColor=#232F3D;" parent="1" vertex="1">
          <mxGeometry x="355" y="457" width="130" height="130" as="geometry" />
        </mxCell>
        <mxCell id="fUN00b8Xxg0_f-7FElX_-10" value="Security group" style="fillColor=none;strokeColor=#DD3522;verticalAlign=top;fontStyle=0;fontColor=#DD3522;" parent="1" vertex="1">
          <mxGeometry x="60" y="70" width="730" height="290" as="geometry" />
        </mxCell>
        <mxCell id="fUN00b8Xxg0_f-7FElX_-9" value="Availability Zone" style="fillColor=none;strokeColor=#147EBA;dashed=1;verticalAlign=top;fontStyle=0;fontColor=#147EBA;" parent="1" vertex="1">
          <mxGeometry x="70" y="100" width="420" height="240" as="geometry" />
        </mxCell>
        <mxCell id="fUN00b8Xxg0_f-7FElX_-33" style="edgeStyle=orthogonalEdgeStyle;rounded=0;orthogonalLoop=1;jettySize=auto;html=1;entryX=0;entryY=0.25;entryDx=0;entryDy=0;" parent="1" source="fUN00b8Xxg0_f-7FElX_-1" target="fUN00b8Xxg0_f-7FElX_-32" edge="1">
          <mxGeometry relative="1" as="geometry" />
        </mxCell>
        <mxCell id="fUN00b8Xxg0_f-7FElX_-1" value="&lt;div&gt;ECS&lt;/div&gt;" style="outlineConnect=0;fontColor=#232F3E;gradientColor=#F78E04;gradientDirection=north;fillColor=#D05C17;strokeColor=#ffffff;dashed=0;verticalLabelPosition=bottom;verticalAlign=top;align=center;html=1;fontSize=12;fontStyle=0;aspect=fixed;shape=mxgraph.aws4.resourceIcon;resIcon=mxgraph.aws4.ecs;" parent="1" vertex="1">
          <mxGeometry x="60" y="385" width="80" height="80" as="geometry" />
        </mxCell>
        <mxCell id="fUN00b8Xxg0_f-7FElX_-28" style="edgeStyle=orthogonalEdgeStyle;rounded=0;orthogonalLoop=1;jettySize=auto;html=1;entryX=0.992;entryY=0.5;entryDx=0;entryDy=0;entryPerimeter=0;" parent="1" source="fUN00b8Xxg0_f-7FElX_-3" target="fUN00b8Xxg0_f-7FElX_-27" edge="1">
          <mxGeometry relative="1" as="geometry" />
        </mxCell>
        <mxCell id="fUN00b8Xxg0_f-7FElX_-41" style="edgeStyle=orthogonalEdgeStyle;rounded=0;orthogonalLoop=1;jettySize=auto;html=1;exitX=0.5;exitY=0;exitDx=0;exitDy=0;" parent="1" source="fUN00b8Xxg0_f-7FElX_-7" target="fUN00b8Xxg0_f-7FElX_-13" edge="1">
          <mxGeometry relative="1" as="geometry">
            <Array as="points">
              <mxPoint x="140" y="143" />
              <mxPoint x="559" y="143" />
            </Array>
          </mxGeometry>
        </mxCell>
        <mxCell id="fUN00b8Xxg0_f-7FElX_-43" style="edgeStyle=orthogonalEdgeStyle;rounded=0;orthogonalLoop=1;jettySize=auto;html=1;exitX=0.5;exitY=0;exitDx=0;exitDy=0;" parent="1" source="fUN00b8Xxg0_f-7FElX_-7" target="fUN00b8Xxg0_f-7FElX_-12" edge="1">
          <mxGeometry relative="1" as="geometry">
            <Array as="points">
              <mxPoint x="140" y="143" />
              <mxPoint x="669" y="143" />
            </Array>
          </mxGeometry>
        </mxCell>
        <mxCell id="fUN00b8Xxg0_f-7FElX_-7" value="Private subnet" style="points=[[0,0],[0.25,0],[0.5,0],[0.75,0],[1,0],[1,0.25],[1,0.5],[1,0.75],[1,1],[0.75,1],[0.5,1],[0.25,1],[0,1],[0,0.75],[0,0.5],[0,0.25]];outlineConnect=0;gradientColor=none;html=1;whiteSpace=wrap;fontSize=12;fontStyle=0;shape=mxgraph.aws4.group;grIcon=mxgraph.aws4.group_security_group;grStroke=0;strokeColor=#147EBA;fillColor=#E6F2F8;verticalAlign=top;align=left;spacingLeft=30;fontColor=#147EBA;dashed=0;" parent="1" vertex="1">
          <mxGeometry x="80" y="162.5" width="120" height="105" as="geometry" />
        </mxCell>
        <mxCell id="fUN00b8Xxg0_f-7FElX_-42" style="edgeStyle=orthogonalEdgeStyle;rounded=0;orthogonalLoop=1;jettySize=auto;html=1;exitX=0.5;exitY=0;exitDx=0;exitDy=0;" parent="1" edge="1">
          <mxGeometry relative="1" as="geometry">
            <mxPoint x="395" y="160" as="sourcePoint" />
            <mxPoint x="559" y="262" as="targetPoint" />
            <Array as="points">
              <mxPoint x="395" y="140" />
              <mxPoint x="559" y="140" />
            </Array>
          </mxGeometry>
        </mxCell>
        <mxCell id="fUN00b8Xxg0_f-7FElX_-44" style="edgeStyle=orthogonalEdgeStyle;rounded=0;orthogonalLoop=1;jettySize=auto;html=1;exitX=1;exitY=0.5;exitDx=0;exitDy=0;" parent="1" source="fUN00b8Xxg0_f-7FElX_-8" target="fUN00b8Xxg0_f-7FElX_-12" edge="1">
          <mxGeometry relative="1" as="geometry">
            <Array as="points">
              <mxPoint x="669" y="214" />
            </Array>
          </mxGeometry>
        </mxCell>
        <mxCell id="fUN00b8Xxg0_f-7FElX_-8" value="Private subnet" style="points=[[0,0],[0.25,0],[0.5,0],[0.75,0],[1,0],[1,0.25],[1,0.5],[1,0.75],[1,1],[0.75,1],[0.5,1],[0.25,1],[0,1],[0,0.75],[0,0.5],[0,0.25]];outlineConnect=0;gradientColor=none;html=1;whiteSpace=wrap;fontSize=12;fontStyle=0;shape=mxgraph.aws4.group;grIcon=mxgraph.aws4.group_security_group;grStroke=0;strokeColor=#147EBA;fillColor=#E6F2F8;verticalAlign=top;align=left;spacingLeft=30;fontColor=#147EBA;dashed=0;" parent="1" vertex="1">
          <mxGeometry x="330" y="160" width="130" height="107.5" as="geometry" />
        </mxCell>
        <mxCell id="fUN00b8Xxg0_f-7FElX_-12" value="CACHE" style="outlineConnect=0;fontColor=#232F3E;gradientColor=#4D72F3;gradientDirection=north;fillColor=#3334B9;strokeColor=#ffffff;dashed=0;verticalLabelPosition=bottom;verticalAlign=top;align=center;html=1;fontSize=12;fontStyle=0;aspect=fixed;shape=mxgraph.aws4.resourceIcon;resIcon=mxgraph.aws4.elasticache;" parent="1" vertex="1">
          <mxGeometry x="630" y="262" width="78" height="78" as="geometry" />
        </mxCell>
        <mxCell id="fUN00b8Xxg0_f-7FElX_-13" value="DB" style="outlineConnect=0;fontColor=#232F3E;gradientColor=none;fillColor=#3334B9;strokeColor=none;dashed=0;verticalLabelPosition=bottom;verticalAlign=top;align=center;html=1;fontSize=12;fontStyle=0;aspect=fixed;pointerEvents=1;shape=mxgraph.aws4.rds_instance;" parent="1" vertex="1">
          <mxGeometry x="520" y="262" width="78" height="78" as="geometry" />
        </mxCell>
        <mxCell id="fUN00b8Xxg0_f-7FElX_-14" value="EC2" style="outlineConnect=0;fontColor=#232F3E;gradientColor=#F78E04;gradientDirection=north;fillColor=#D05C17;strokeColor=#ffffff;dashed=0;verticalLabelPosition=bottom;verticalAlign=top;align=center;html=1;fontSize=12;fontStyle=0;aspect=fixed;shape=mxgraph.aws4.resourceIcon;resIcon=mxgraph.aws4.ec2;" parent="1" vertex="1">
          <mxGeometry x="112" y="200" width="56" height="56" as="geometry" />
        </mxCell>
        <mxCell id="fUN00b8Xxg0_f-7FElX_-15" value="EC2" style="outlineConnect=0;fontColor=#232F3E;gradientColor=#F78E04;gradientDirection=north;fillColor=#D05C17;strokeColor=#ffffff;dashed=0;verticalLabelPosition=bottom;verticalAlign=top;align=center;html=1;fontSize=12;fontStyle=0;aspect=fixed;shape=mxgraph.aws4.resourceIcon;resIcon=mxgraph.aws4.ec2;" parent="1" vertex="1">
          <mxGeometry x="369.5" y="202.5" width="51" height="51" as="geometry" />
        </mxCell>
        <mxCell id="fUN00b8Xxg0_f-7FElX_-18" style="edgeStyle=orthogonalEdgeStyle;rounded=0;orthogonalLoop=1;jettySize=auto;html=1;entryX=1;entryY=0.5;entryDx=0;entryDy=0;" parent="1" source="fUN00b8Xxg0_f-7FElX_-16" target="fUN00b8Xxg0_f-7FElX_-7" edge="1">
          <mxGeometry relative="1" as="geometry">
            <Array as="points">
              <mxPoint x="269" y="215" />
            </Array>
          </mxGeometry>
        </mxCell>
        <mxCell id="fUN00b8Xxg0_f-7FElX_-19" style="edgeStyle=orthogonalEdgeStyle;rounded=0;orthogonalLoop=1;jettySize=auto;html=1;entryX=0;entryY=0.5;entryDx=0;entryDy=0;" parent="1" edge="1">
          <mxGeometry relative="1" as="geometry">
            <mxPoint x="269" y="257" as="sourcePoint" />
            <mxPoint x="330" y="214.75" as="targetPoint" />
            <Array as="points">
              <mxPoint x="269" y="215" />
            </Array>
          </mxGeometry>
        </mxCell>
        <mxCell id="fUN00b8Xxg0_f-7FElX_-16" value="ALB" style="outlineConnect=0;fontColor=#232F3E;gradientColor=#F78E04;gradientDirection=north;fillColor=#D05C17;strokeColor=#ffffff;dashed=0;verticalLabelPosition=bottom;verticalAlign=top;align=center;html=1;fontSize=12;fontStyle=0;aspect=fixed;shape=mxgraph.aws4.resourceIcon;resIcon=mxgraph.aws4.elastic_load_balancing;" parent="1" vertex="1">
          <mxGeometry x="230" y="256" width="78" height="78" as="geometry" />
        </mxCell>
        <mxCell id="fUN00b8Xxg0_f-7FElX_-20" value="" style="outlineConnect=0;fontColor=#232F3E;gradientColor=none;fillColor=#D86613;strokeColor=none;dashed=0;verticalLabelPosition=bottom;verticalAlign=top;align=center;html=1;fontSize=12;fontStyle=0;aspect=fixed;pointerEvents=1;shape=mxgraph.aws4.t3_instance;" parent="1" vertex="1">
          <mxGeometry x="369.5" y="488" width="40" height="40" as="geometry" />
        </mxCell>
        <mxCell id="fUN00b8Xxg0_f-7FElX_-21" value="" style="outlineConnect=0;fontColor=#232F3E;gradientColor=none;fillColor=#D86613;strokeColor=none;dashed=0;verticalLabelPosition=bottom;verticalAlign=top;align=center;html=1;fontSize=12;fontStyle=0;aspect=fixed;pointerEvents=1;shape=mxgraph.aws4.c4_instance;" parent="1" vertex="1">
          <mxGeometry x="369.5" y="542" width="38" height="38" as="geometry" />
        </mxCell>
        <mxCell id="fUN00b8Xxg0_f-7FElX_-31" style="edgeStyle=orthogonalEdgeStyle;rounded=0;orthogonalLoop=1;jettySize=auto;html=1;entryX=0.5;entryY=0.949;entryDx=0;entryDy=0;entryPerimeter=0;" parent="1" source="fUN00b8Xxg0_f-7FElX_-23" target="fUN00b8Xxg0_f-7FElX_-16" edge="1">
          <mxGeometry relative="1" as="geometry" />
        </mxCell>
        <mxCell id="fUN00b8Xxg0_f-7FElX_-23" value="" style="outlineConnect=0;fontColor=#232F3E;gradientColor=none;fillColor=#D05C17;strokeColor=none;dashed=0;verticalLabelPosition=bottom;verticalAlign=top;align=center;html=1;fontSize=12;fontStyle=0;aspect=fixed;pointerEvents=1;shape=mxgraph.aws4.ecs_service;" parent="1" vertex="1">
          <mxGeometry x="237" y="396" width="64" height="78" as="geometry" />
        </mxCell>
        <mxCell id="fUN00b8Xxg0_f-7FElX_-24" value="Instance types" style="text;html=1;align=center;verticalAlign=middle;resizable=0;points=[];autosize=1;rotation=270;" parent="1" vertex="1">
          <mxGeometry x="318" y="524" width="90" height="20" as="geometry" />
        </mxCell>
        <mxCell id="fUN00b8Xxg0_f-7FElX_-29" style="edgeStyle=orthogonalEdgeStyle;rounded=0;orthogonalLoop=1;jettySize=auto;html=1;" parent="1" target="fUN00b8Xxg0_f-7FElX_-23" edge="1">
          <mxGeometry relative="1" as="geometry">
            <mxPoint x="420.5" y="534" as="sourcePoint" />
            <mxPoint x="269" y="463" as="targetPoint" />
          </mxGeometry>
        </mxCell>
        <mxCell id="fUN00b8Xxg0_f-7FElX_-27" value="" style="outlineConnect=0;fontColor=#232F3E;gradientColor=none;fillColor=#D05C17;strokeColor=none;dashed=0;verticalLabelPosition=bottom;verticalAlign=top;align=center;html=1;fontSize=12;fontStyle=0;aspect=fixed;pointerEvents=1;shape=mxgraph.aws4.ecs_task;" parent="1" vertex="1">
          <mxGeometry x="420.5" y="501" width="52.95" height="70" as="geometry" />
        </mxCell>
        <mxCell id="fUN00b8Xxg0_f-7FElX_-30" value="" style="outlineConnect=0;fontColor=#232F3E;gradientColor=none;fillColor=#D05C17;strokeColor=none;dashed=0;verticalLabelPosition=bottom;verticalAlign=top;align=center;html=1;fontSize=12;fontStyle=0;aspect=fixed;pointerEvents=1;shape=mxgraph.aws4.auto_scaling2;" parent="1" vertex="1">
          <mxGeometry x="308" y="420" width="44" height="44" as="geometry" />
        </mxCell>
        <mxCell id="fUN00b8Xxg0_f-7FElX_-34" value="Auto-scaling tasks" style="text;html=1;align=center;verticalAlign=middle;resizable=0;points=[];autosize=1;" parent="1" vertex="1">
          <mxGeometry x="333.5" y="415" width="110" height="20" as="geometry" />
        </mxCell>
        <mxCell id="fUN00b8Xxg0_f-7FElX_-36" value="Service to deploy task" style="text;html=1;align=center;verticalAlign=middle;resizable=0;points=[];autosize=1;rotation=270;" parent="1" vertex="1">
          <mxGeometry x="160" y="425" width="130" height="20" as="geometry" />
        </mxCell>
        <mxCell id="fUN00b8Xxg0_f-7FElX_-37" value="&lt;div&gt;Task definition with&lt;/div&gt;&lt;div&gt;containers from ECR&lt;br&gt; &lt;/div&gt;" style="text;html=1;align=center;verticalAlign=middle;resizable=0;points=[];autosize=1;rotation=90;" parent="1" vertex="1">
          <mxGeometry x="440" y="512" width="130" height="30" as="geometry" />
        </mxCell>
        <mxCell id="fUN00b8Xxg0_f-7FElX_-45" value="" style="outlineConnect=0;fontColor=#232F3E;gradientColor=#4D72F3;gradientDirection=north;fillColor=#3334B9;strokeColor=#ffffff;dashed=0;verticalLabelPosition=bottom;verticalAlign=top;align=center;html=1;fontSize=12;fontStyle=0;aspect=fixed;shape=mxgraph.aws4.resourceIcon;resIcon=mxgraph.aws4.codebuild;" parent="1" vertex="1">
          <mxGeometry x="80" y="505" width="32" height="32" as="geometry" />
        </mxCell>
        <mxCell id="fUN00b8Xxg0_f-7FElX_-46" value="&lt;div&gt;To be used later&lt;/div&gt;&lt;div&gt;for CI &amp;amp; CD&lt;br&gt;&lt;/div&gt;" style="text;html=1;align=center;verticalAlign=middle;resizable=0;points=[];autosize=1;" parent="1" vertex="1">
          <mxGeometry x="50" y="537" width="100" height="30" as="geometry" />
        </mxCell>
        <mxCell id="fUN00b8Xxg0_f-7FElX_-3" value="&lt;div&gt;ECR&lt;/div&gt;&lt;div&gt;&amp;nbsp;- storing all application containers&lt;/div&gt;" style="outlineConnect=0;fontColor=#232F3E;gradientColor=#F78E04;gradientDirection=north;fillColor=#D05C17;strokeColor=#ffffff;dashed=0;verticalLabelPosition=bottom;verticalAlign=top;align=center;html=1;fontSize=12;fontStyle=0;aspect=fixed;shape=mxgraph.aws4.resourceIcon;resIcon=mxgraph.aws4.ecr;" parent="1" vertex="1">
          <mxGeometry x="650" y="496" width="80" height="80" as="geometry" />
        </mxCell>
        <mxCell id="fUN00b8Xxg0_f-7FElX_-49" value="Service B" style="outlineConnect=0;fontColor=#232F3E;gradientColor=none;fillColor=#D05C17;strokeColor=none;dashed=0;verticalLabelPosition=bottom;verticalAlign=top;align=center;html=1;fontSize=12;fontStyle=0;aspect=fixed;pointerEvents=1;shape=mxgraph.aws4.container_1;" parent="1" vertex="1">
          <mxGeometry x="653" y="700" width="78" height="50" as="geometry" />
        </mxCell>
        <mxCell id="fUN00b8Xxg0_f-7FElX_-51" value="Service C" style="outlineConnect=0;fontColor=#232F3E;gradientColor=none;fillColor=#D05C17;strokeColor=none;dashed=0;verticalLabelPosition=bottom;verticalAlign=top;align=center;html=1;fontSize=12;fontStyle=0;aspect=fixed;pointerEvents=1;shape=mxgraph.aws4.container_1;" parent="1" vertex="1">
          <mxGeometry x="751" y="700" width="78" height="50" as="geometry" />
        </mxCell>
        <mxCell id="fUN00b8Xxg0_f-7FElX_-52" value="Service A" style="outlineConnect=0;fontColor=#232F3E;gradientColor=none;fillColor=#D05C17;strokeColor=none;dashed=0;verticalLabelPosition=bottom;verticalAlign=top;align=center;html=1;fontSize=12;fontStyle=0;aspect=fixed;pointerEvents=1;shape=mxgraph.aws4.container_1;" parent="1" vertex="1">
          <mxGeometry x="551" y="700" width="78" height="50" as="geometry" />
        </mxCell>
        <mxCell id="zU7pzIVGn5xbef__wyIA-1" value="&lt;div&gt;Application infrastucture&lt;/div&gt;" style="text;html=1;align=center;verticalAlign=middle;resizable=0;points=[];autosize=1;" vertex="1" parent="1">
          <mxGeometry x="112" y="690" width="140" height="20" as="geometry" />
        </mxCell>
      </root>
    </mxGraphModel>
  </diagram>
</mxfile>
